<svg width="68" height="68" viewBox="0 0 68 68" fill="none" xmlns="http://www.w3.org/2000/svg">
<g filter="url(#filter0_d_1106_656)">
<path d="M22.87 27.87C22.5969 28.1553 22.3828 28.4917 22.24 28.86C21.9399 29.5904 21.9399 30.4096 22.24 31.14C22.3828 31.5082 22.5969 31.8447 22.87 32.13L31.87 41.13C32.4349 41.6949 33.2011 42.0123 34 42.0123C34.7989 42.0123 35.5651 41.6949 36.13 41.13C36.6949 40.5651 37.0123 39.7989 37.0123 39C37.0123 38.2011 36.6949 37.4349 36.13 36.87L32.23 33H43C43.7956 33 44.5587 32.6839 45.1213 32.1213C45.6839 31.5587 46 30.7956 46 30C46 29.2043 45.6839 28.4413 45.1213 27.8787C44.5587 27.3161 43.7956 27 43 27H32.23L36.13 23.13C36.4112 22.8511 36.6344 22.5193 36.7867 22.1537C36.939 21.7881 37.0174 21.396 37.0174 21C37.0174 20.604 36.939 20.2118 36.7867 19.8463C36.6344 19.4807 36.4112 19.1489 36.13 18.87C35.8511 18.5888 35.5193 18.3656 35.1537 18.2133C34.7881 18.061 34.396 17.9826 34 17.9826C33.604 17.9826 33.2118 18.061 32.8463 18.2133C32.4807 18.3656 32.1489 18.5888 31.87 18.87L22.87 27.87ZM4 30C4 35.9334 5.75947 41.7336 9.05591 46.6671C12.3524 51.6006 17.0377 55.4457 22.5195 57.7164C28.0013 59.987 34.0333 60.5811 39.8527 59.4235C45.6721 58.266 51.0176 55.4088 55.2132 51.2132C59.4088 47.0176 62.266 41.6721 63.4235 35.8527C64.5811 30.0333 63.987 24.0013 61.7164 18.5195C59.4457 13.0377 55.6006 8.35235 50.6671 5.05591C45.7336 1.75947 39.9334 0 34 0C30.0603 0 26.1593 0.775973 22.5195 2.28361C18.8797 3.79125 15.5726 6.00104 12.7868 8.78679C7.1607 14.4129 4 22.0435 4 30V30ZM58 30C58 34.7467 56.5924 39.3869 53.9553 43.3337C51.3181 47.2805 47.5698 50.3566 43.1844 52.1731C38.799 53.9896 33.9734 54.4649 29.3178 53.5388C24.6623 52.6128 20.3859 50.327 17.0294 46.9706C13.673 43.6141 11.3872 39.3377 10.4612 34.6822C9.53511 30.0266 10.0104 25.201 11.8269 20.8156C13.6434 16.4302 16.7195 12.6819 20.6663 10.0447C24.6131 7.40757 29.2532 6 34 6C40.3652 6 46.4697 8.52856 50.9706 13.0294C55.4714 17.5303 58 23.6348 58 30Z" fill="#8B5CF6"/>
</g>
<defs>
<filter id="filter0_d_1106_656" x="0" y="0" width="68" height="68" filterUnits="userSpaceOnUse" color-interpolation-filters="sRGB">
<feFlood flood-opacity="0" result="BackgroundImageFix"/>
<feColorMatrix in="SourceAlpha" type="matrix" values="0 0 0 0 0 0 0 0 0 0 0 0 0 0 0 0 0 0 127 0" result="hardAlpha"/>
<feOffset dy="4"/>
<feGaussianBlur stdDeviation="2"/>
<feComposite in2="hardAlpha" operator="out"/>
<feColorMatrix type="matrix" values="0 0 0 0 0 0 0 0 0 0 0 0 0 0 0 0 0 0 0.25 0"/>
<feBlend mode="normal" in2="BackgroundImageFix" result="effect1_dropShadow_1106_656"/>
<feBlend mode="normal" in="SourceGraphic" in2="effect1_dropShadow_1106_656" result="shape"/>
</filter>
</defs>
</svg>
